Patient4_TMGait_0pt3_02_left_13_EMG.mot
version=1
nRows=26
nColumns=33
inDegrees=no
endheader
time	1LAddLong	2LGlutMax	3LGlutMed	4LIliopsoas	5LSemiMemb	6LBicFemLong	7LRecFem	8LVastMed	9LVastLat	10LGasMed	11LTibAnt	12lTibPost	13LPeroneusLong	14LSol	15LExtDigLong	16LFlexDigLong	17RAddLong	18RGlutMax	19RGlutMed	20RIliopsoas	21RSemiMemb	22RBicFemLong	23RRecFem	24RVastMed	25RVastLat	26RGasMed	27RTibAnt	28RTibPost	29RPeroneusLong	30RSol	31RExtDigLong	32RFlexDigLong
25.925	-0.058136	-0.019684	-0.009613	0.023804	-0.2243	0.27039	0.098877	-0.021973	-0.080109	-0.01297	0.00412	-0.016327	-0.98312	0.08728	0.06134	-0.15869	0.014343	-0.19821	0.37888	-0.016937	0.032654	0.045319	-0.046844	-0.007324	-0.009766	0.021515	-0.003967	0.027313	-0.065155	0.06424	-0.001373	-0.011292
25.926	-0.0383	0.028687	-0.055695	0.025177	-0.10223	0.22537	0.069885	0.011597	-0.05722	-0.011902	0.009003	-0.014954	-1.1363	0.11292	-0.015564	-0.13428	0.002441	-0.23438	0.56122	-0.019379	0.003357	0.018311	-0.032043	-0.019989	-0.012054	0.027466	0.025635	0.020447	-0.37888	-0.42175	-0.003815	-0.00885
25.927	-0.00824	0.10574	-0.12894	0.009766	0.016632	0.17349	0.052795	0.012665	-0.024261	0.034332	0.005188	-0.016022	-0.63828	-0.097046	-0.18219	-0.11002	-0.001526	-0.23499	0.25375	0.008087	-0.012207	0.02655	-0.032654	-0.038147	-0.006866	0.038605	0.048981	0.005646	-0.45502	-0.54901	0	-0.01297
25.928	0.023041	0.13947	-0.058594	-0.001068	0.029144	0.21164	0.034485	0.003357	0.001068	0.041809	0.002289	-0.015106	0.1088	-0.020752	-0.12955	-0.063019	0.011139	-0.22461	-0.1178	-0.082245	-0.017242	0.01709	-0.078125	-0.022125	-0.000458	0.055695	0.048981	0.001221	-0.1564	-0.4924	-0.00061	-0.014954
25.929	0.028534	0.17181	0.14435	0.016632	0.12863	0.21088	0.000305	-0.004272	0.062103	0.03006	-0.01358	-0.015259	0.23331	0.033722	-0.062866	-0.04364	-0.00473	-0.30029	-0.22537	-0.14648	0.009308	0.031891	-0.19119	-0.046082	0.010986	0.048981	0.025177	-0.039215	-0.11673	-0.41184	-0.00351	0.001373
25.93	0.027161	0.14862	0.22751	0.007019	0.09903	-0.36346	-0.017242	-0.007324	0.14313	0.13229	-0.007477	-0.018616	-0.007172	-0.16663	-0.03006	-0.021667	0.001984	-0.31555	-0.17044	-0.052795	-0.001678	0.043335	-0.22659	-0.049286	0.042877	0.044098	-0.028229	-0.13702	0.070953	-0.10254	-0.006714	-0.002594
25.931	0.013123	0.072021	0.1355	0.004883	0.082092	-0.94437	-0.012207	-0.002289	0.23727	0.22201	0.007629	-0.005798	-0.019684	-0.23224	-0.054169	-0.016022	0.014496	-0.33173	-0.023804	0.04364	0.009155	0.04303	-0.15686	-0.028229	0.030518	0.005493	-0.052643	-0.17227	0.12116	-0.62668	0.001526	0.004578
25.932	-0.001221	0.015411	0.065155	-0.006561	0.021667	-0.73471	-0.020905	-0.003662	0.18814	0.31799	-0.003662	-0.009918	0.083313	-0.2002	-0.039215	-0.021515	0.006561	-0.22522	-0.18204	0.092621	0.005798	0.032654	-0.096436	-0.068207	0.013885	-0.034485	-0.044403	0.066681	-0.5217	-0.83008	-0.002441	-0.007477
25.933	-0.005035	0.084991	0.08667	-0.006256	-0.033569	-0.28259	-0.008087	0.002594	0.12787	0.23666	-0.011597	-0.016937	0.045929	-0.055389	0.068359	0.013123	0.018921	-0.23438	-0.38345	0.14893	0.001526	0.02594	-0.11292	-0.058289	0.01709	-0.033112	-0.014496	-0.41809	-0.57144	-0.8046	0.000458	-0.002289
25.934	-0.00946	0.11078	0.030212	0.005951	-0.089722	-0.029907	0.006256	0.007172	0.020447	0.003204	-0.006409	-0.013733	0.005951	0.061798	0.099792	0.032654	0.027161	-0.22003	-0.41092	0.097656	-0.003815	0.00473	-0.071106	-0.065765	-0.00061	-0.021667	-0.018311	-0.17975	-0.20889	-1.1719	-0.003357	-0.008698
25.935	0.01358	0.1384	-0.025024	0.014038	-0.084381	-0.1265	0.052338	0.002594	-0.064087	-0.15671	-0.006256	0.000458	-0.027008	0.077515	0.052795	0.062561	0.025482	-0.23315	-0.20905	0.027466	-0.004883	0.001831	-0.058899	-0.11078	-0.025635	-0.010071	-0.0177	0.40314	0.45273	-1.0712	-0.001373	-0.016022
25.936	0.041656	0.15823	0.030212	0.004425	-0.025635	-0.32211	0.079956	-0.000458	-0.071411	-0.063782	-0.006866	-0.013885	0.06958	0.03479	0.03418	0.071869	0.016632	-0.22247	-0.029449	0.00946	-0.039673	-0.000763	-0.043182	-0.036316	-0.030365	-0.037842	-0.012054	0.073853	0.52826	-0.068817	0.000305	-0.013275
25.937	0.051117	0.1622	0.028687	0.007477	0.12085	-0.26443	0.12543	-0.005341	-0.075684	-0.079651	-0.007019	-0.010223	-0.000153	-0.039215	-0.033112	0.087433	0.015869	-0.21225	-0.22217	0.022888	-0.095978	-0.001831	-0.058441	-0.054779	-0.002594	-0.025177	-0.017242	0.050354	0.61401	0.35111	-0.000916	-0.001831
25.938	0.032654	0.11032	-0.027313	0.010223	0.10544	-0.00824	0.14847	0.015411	-0.085449	-0.15625	-0.013733	-0.014801	0.082245	-0.050507	-0.011292	0.10239	0.000153	-0.22324	-0.16052	-0.009613	-0.12024	0.030975	-0.083466	-0.076294	0.009003	-0.002747	-0.003052	0.080566	-0.051117	1.1311	0.001221	-0.001221
25.939	0.016632	0.076752	-0.098724	-0.007935	-0.006409	0.041351	0.078583	0.009613	-0.050659	-0.072479	-0.010071	-0.013885	0.29098	-0.046692	0.050049	0.12314	0.007782	-0.13351	-0.28137	0.016632	-0.070038	0.052185	-0.17487	-0.029755	0.037384	0.010529	0.051575	0.044708	-0.84808	0.8342	-0.00412	-0.005493
25.94	0.002899	-0.006866	-0.049133	-0.007019	-0.06134	-0.15793	0.024567	0.012512	-0.012665	-0.069885	-0.003357	-0.010834	0.092773	0.013123	0.031586	0.15915	0.005951	-0.18448	-0.32227	0.012817	0.082092	0.014343	-0.13428	0.017395	0.057068	0.009766	0.004578	0.032959	-0.3331	0.78186	0.00061	-0.010223
25.941	-0.005493	-0.010376	0.003662	0.013123	-0.085754	-0.056305	0.004272	0.009766	0.001678	-0.11276	0.002594	-0.027008	0.009308	-0.012512	-0.023041	0.20096	0.005188	-0.19608	-0.20935	0.001221	0.14267	0.008087	-0.085297	-0.0177	0.011139	0.010681	-0.011749	0.033264	-0.47211	0.57816	-0.000153	-0.005951
25.942	-0.009918	-0.057373	0.10407	0.020447	-0.097504	0.008392	0.058899	0.011139	0.050049	-0.10178	0.00824	-0.013275	-0.086975	-0.13763	-0.077362	0.22751	0.001831	-0.10651	-0.27542	0.016327	0.1001	-0.015106	-0.11154	-0.02121	0.03952	-0.017548	0.031128	-0.15839	-0.24307	0.44952	-0.001984	-0.016937
25.943	-0.016327	-0.088959	0.075531	0.020447	-0.086517	-0.06424	0.18875	0.010071	0.13306	-0.015564	0.016785	-0.018311	0.0177	-0.1059	-0.091248	0.24048	0.013275	-0.23575	-0.26199	0.020447	-0.023651	-0.070648	-0.095825	0.022278	0.005188	-0.007477	0.014496	-0.3305	0.41138	0.25467	-0.000916	-0.015869
25.944	-0.001831	-0.034637	0.05249	0.006104	-0.032043	-0.043182	0.20493	0.009766	0.14206	0.02182	0.015717	-0.02594	-0.027924	-0.06012	0.050201	0.18066	0.014191	-0.17197	-0.32074	0.009308	-0.077057	-0.032806	-0.070953	-0.038147	-0.010681	0.000458	0.010529	0.025787	0.5484	-0.01358	-0.003662	-0.00946
25.945	0.008545	-0.075378	0.042877	0.008392	0.059509	-0.090179	0.15518	0.007324	0.10483	0.096436	0.004272	-0.014038	-0.11581	-0.017548	0.11185	0.14069	0.005646	-0.14038	-0.3566	0.007782	-0.088196	-0.06958	-0.066376	-0.008087	0.000305	0.00061	0.01236	0.1503	0.29007	-0.20309	-0.001373	-0.00824
25.946	0.003815	-0.12894	0.13672	0.001984	0.09903	-0.058136	0.13779	-0.000458	0.073547	0.2243	-0.009308	-0.022888	0.006409	0.036774	0.12405	0.11292	0.001221	-0.17731	-0.31967	-0.090485	0.04837	0.022736	-0.11063	0.021362	0.027008	0.002289	0.030212	0.14664	0.19775	-0.24124	-0.002136	-0.012512
25.947	-0.012817	-0.10727	0.10239	0.00473	-0.007477	0.10223	0.15427	0.010529	0.028534	0.20844	0.008698	-0.003815	-0.018311	0.027161	0.12848	0.079041	0.006104	-0.1619	-0.29724	-0.25803	0.012512	0.073547	-0.17364	0.052032	0.064087	0.001678	0.004883	0.045013	-0.11704	0.049744	-0.000916	-0.00824
25.948	-0.023193	-0.079346	0.058136	0.020447	-0.015106	0.23987	0.11215	0.012207	0.001831	0.16678	-0.009155	-0.006714	0.000153	-0.0914	0.042877	0.033875	-0.012207	-0.18478	-0.34134	-0.20844	-0.001831	0.056915	-0.14618	0.005798	0.032196	0.001984	0.005951	-0.004578	0.051422	0.65475	-0.002289	-0.009766
25.949	-0.052643	0.02121	0.056458	-0.000916	-0.070496	0.16083	0.062103	0.011902	0.001068	0.19684	0.001984	-0.03067	0.043335	-0.15884	0.037994	0.027924	-0.026398	-0.11154	-0.38467	-0.12833	0.03479	0.11139	-0.10239	-0.010376	0.012054	0.001984	-0.015259	-0.019379	0.29465	1.003	-0.001221	-0.001831
25.95	0.030823	0.050964	-0.011749	-0.003052	-0.076599	0.069122	-0.043945	0.002899	-0.016022	-0.088806	-0.013733	0.007477	0.057678	-0.26413	0.056915	0.011292	-0.041351	-0.036926	-0.5098	0.071869	0.034943	0.19012	-0.071411	-0.033264	0.007019	-0.001221	0.011597	-0.024567	0.20233	0.68924	-0.004272	-0.001984
